{"title":"Nasha 2014 Hindi 720p BluRay x264 Ozlem-N3kr4","uid":10218471,"size":919513025,"categoryP":"video","categoryS":"hd___movies","magnet":"?xt=urn:btih:5fd142df370132dfe50bc530ecdff7ed90f15bc4&amp;dn=Nasha+2014+Hindi+720p+BluRay+x264+Ozlem-N3kr4&amp;tr=udp%3A%2F%2Ftracker.openbittorrent.com%3A80&amp;tr=udp%3A%2F%2Fopen.demonii.com%3A1337&amp;tr=udp%3A%2F%2Ftracker.coppersurfer.tk%3A6969&amp;tr=udp%3A%2F%2Fexodus.desync.com%3A6969","seeders":0,"leechers":1,"uploader":"Falcon.G13","files":1,"time":1400996450,"description":"Nasha (2013)\n122 min - Drama | Romance | Thriller - 26 July 2013 (India)\n3.2 Your rating: -/10 Ratings: 3.2/10 from 528 users \nReviews: 7 user | 1 critic\n\nAn 18 year old boy falls in love with his 25 year old drama teacher.\n &lt;a href=&quot;\nhttp://i.imgur.com/J2vhdGJ.jpg&quot; rel=&quot;nofollow&quot; target=&quot;_NEW&quot;&gt;\nhttp://i.imgur.com/J2vhdGJ.jpg&lt;/a&gt; &lt;a href=&quot;\nhttp://i.imgur.com/sVXRFUE.jpg&quot; rel=&quot;nofollow&quot; target=&quot;_NEW&quot;&gt;\nhttp://i.imgur.com/sVXRFUE.jpg&lt;/a&gt; &lt;a href=&quot;\nhttp://i.imgur.com/l8uIdyf.jpg&quot; rel=&quot;nofollow&quot; target=&quot;_NEW&quot;&gt;\nhttp://i.imgur.com/l8uIdyf.jpg&lt;/a&gt; &lt;a href=&quot;\nhttp://i.imgur.com/Jw9xtNl.jpg&quot; rel=&quot;nofollow&quot; target=&quot;_NEW&quot;&gt;\nhttp://i.imgur.com/Jw9xtNl.jpg&lt;/a&gt; &lt;a href=&quot;\nhttp://i.imgur.com/9OnuI3S.jpg&quot; rel=&quot;nofollow&quot; target=&quot;_NEW&quot;&gt;\nhttp://i.imgur.com/9OnuI3S.jpg&lt;/a&gt; &lt;a href=&quot;\nhttp://i.imgur.com/PK2UqaI.jpg&quot; rel=&quot;nofollow&quot; target=&quot;_NEW&quot;&gt;\nhttp://i.imgur.com/PK2UqaI.jpg&lt;/a&gt; &lt;a href=&quot;\nhttp://i.imgur.com/eDFExPl.jpg&quot; rel=&quot;nofollow&quot; target=&quot;_NEW&quot;&gt;\nhttp://i.imgur.com/eDFExPl.jpg&lt;/a&gt;\n\nGeneral\nComplete name : C:Nasha 2014 720p BluRay x264 Ozlem-N3kr4.mp4\nFormat : MPEG-4\nFormat profile : Base Media\nCodec ID : isom\nFile size : 877 MiB\nDuration : 1h 56mn\nOverall bit rate mode : Variable\nOverall bit rate : 1 056 Kbps\nEncoded date : UTC 2014-05-23 08:13:34\nTagged date : UTC 2014-05-23 08:13:34\n\nVideo\nID : 1\nFormat : AVC\nFormat/Info : Advanced Video Codec\nFormat profile : &lt;a class=&quot;__cf_email__&quot; href=&quot;/cdn-cgi/l/email-protection&quot; data-cfemail=&quot;347c5d535c7478001a05&quot;&gt;[email&amp;#160;protected]&lt;/a&gt;&lt;script data-cfhash='f9e31' type=&quot;text/javascript&quot;&gt;\n/* &lt;![CDATA[ */!function(){try{var t=&quot;currentScript&quot;in document?document.currentScript:function(){for(var t=document.getElementsByTagName(&quot;script&quot;),e=t.length;e--;)if(t[e].getAttribute(&quot;data-cfhash&quot;))return t[e]}();if(t&amp;&amp;t.previousSibling){var e,r,n,i,c=t.previousSibling,a=c.getAttribute(&quot;data-cfemail&quot;);if(a){for(e=&quot;&quot;,r=parseInt(a.substr(0,2),16),n=2;a.length-n;n+=2)i=parseInt(a.substr(n,2),16)^r,e+=String.fromCharCode(i);e=document.createTextNode(e),c.parentNode.replaceChild(e,c)}t.parentNode.removeChild(t);}}catch(u){}}()/* ]]&gt; */&lt;/script&gt;\nFormat settings, CABAC : Yes\nFormat settings, ReFrames : 5 frames\nCodec ID : avc1\nCodec ID/Info : Advanced Video Coding\nDuration : 1h 56mn\nBit rate : 959 Kbps\nMaximum bit rate : 6 785 Kbps\nWidth : 1 280 pixels\nHeight : 544 pixels\nDisplay aspect ratio : 2.35:1\nFrame rate mode : Constant\nFrame rate : 24.000 fps\nColor space : YUV\nChroma subsampling : 4:2:0\nBit depth : 8 bits\nScan type : Progressive\nBits/(Pixel*Frame) : 0.057\nStream size : 796 MiB (91%)\n\nAudio\nID : 2\nFormat : AAC\nFormat/Info : Advanced Audio Codec\nFormat profile : LC\nCodec ID : 40\nDuration : 1h 56mn\nBit rate mode : Variable\nBit rate : 93.6 Kbps\nMaximum bit rate : 167 Kbps\nChannel(s) : 2 channels\nChannel positions : Front: L R\nSampling rate : 44.1 KHz\nCompression mode : Lossy\nStream size : 77.7 MiB (9%)\nEncoded date : UTC 2014-05-23 08:13:36\nTagged date : UTC 2014-05-23 08:13:53","torrent":{"xt":"urn:btih:5fd142df370132dfe50bc530ecdff7ed90f15bc4","amp;dn":"Nasha+2014+Hindi+720p+BluRay+x264+Ozlem-N3kr4","amp;tr":["udp%3A%2F%2Ftracker.openbittorrent.com%3A80","udp%3A%2F%2Fopen.demonii.com%3A1337","udp%3A%2F%2Ftracker.coppersurfer.tk%3A6969","udp%3A%2F%2Fexodus.desync.com%3A6969"],"infoHash":"5fd142df370132dfe50bc530ecdff7ed90f15bc4","infoHashBuffer":{"type":"Buffer","data":[95,209,66,223,55,1,50,223,229,11,197,48,236,223,247,237,144,241,91,196]},"announce":[],"urlList":[]}}